<?xml version="1.0" standalone="no"?>
<!DOCTYPE svg PUBLIC "-//W3C//DTD SVG 20010904//EN"
 "http://www.w3.org/TR/2001/REC-SVG-20010904/DTD/svg10.dtd">
<svg version="1.0" xmlns="http://www.w3.org/2000/svg"
 width="300.000000pt" height="300.000000pt" viewBox="0 0 300.000000 300.000000"
 preserveAspectRatio="xMidYMid meet">

<g transform="translate(0.000000,300.000000) scale(0.100000,-0.100000)"
fill="#000000" stroke="none">
<path d="M1290 2886 l-204 -103 39 -20 39 -21 -84 -42 -84 -42 -41 20 -40 19
-295 -147 -294 -147 39 -20 39 -21 43 21 43 21 43 -21 42 -20 43 20 43 21 82
-41 82 -40 -43 -22 -42 -21 -40 20 -39 20 -44 -21 -43 -21 -42 21 -41 21 -44
-21 -43 -21 -82 41 -82 41 -40 -20 -40 -20 0 -255 0 -255 40 -20 c39 -20 40
-22 40 -70 0 -54 -3 -56 -40 -35 -14 8 -28 14 -32 15 -5 0 -8 -229 -8 -510 l0
-510 500 -250 c275 -137 502 -250 505 -250 3 0 5 20 5 45 0 25 2 45 5 45 2 0
20 -8 40 -17 33 -16 35 -19 35 -68 l0 -50 125 -63 125 -62 670 335 670 335 0
820 0 820 -40 20 -40 20 -40 -20 -39 -20 -86 42 -85 43 40 20 40 21 -128 63
-128 63 -40 -20 c-39 -20 -39 -20 -78 0 -37 19 -40 19 -77 2 -22 -9 -39 -20
-39 -24 0 -4 14 -13 30 -20 17 -7 30 -16 30 -20 0 -4 -17 -15 -39 -24 -37 -17
-40 -17 -77 2 l-39 20 38 18 c20 10 37 20 37 24 0 3 -36 24 -80 45 l-80 39
-43 -21 -43 -21 -42 22 -42 21 85 43 85 42 43 -21 43 -21 40 20 39 20 -127 63
-126 63 -41 -19 c-40 -17 -42 -17 -81 0 -40 18 -42 18 -83 -2 l-42 -20 40 -20
39 -21 -42 -21 c-40 -20 -43 -20 -77 -4 -19 9 -35 20 -35 23 0 3 17 14 38 24
l37 18 -43 21 -42 21 -43 -21 -43 -21 -42 22 -42 21 85 43 85 42 43 -21 43
-21 39 20 39 20 -82 41 c-45 22 -83 41 -84 40 -2 0 -95 -46 -208 -103z m43
-227 l82 -42 -43 -20 -43 -21 -82 40 -82 41 40 21 c22 12 41 21 43 22 1 0 39
-19 85 -41z m255 -42 l83 -43 -43 -21 -43 -21 -85 43 -84 42 39 21 c22 12 42
21 45 21 3 0 42 -19 88 -42z m-718 -67 l40 -20 42 21 42 21 78 -38 c43 -21 78
-41 78 -44 0 -4 -17 -15 -39 -24 -37 -17 -40 -17 -77 2 -38 20 -38 20 -79 0
l-41 -20 -84 42 -84 42 34 19 c44 23 43 23 90 -1z m509 1 l35 -19 -42 -21 -42
-21 -42 21 -42 21 35 19 c18 10 41 18 49 18 8 0 31 -8 49 -18z m835 -209 c37
19 40 19 77 2 22 -9 39 -20 39 -24 0 -4 -13 -13 -30 -20 -16 -7 -30 -16 -30
-19 0 -4 17 -15 38 -25 l37 -18 -43 -21 -42 -21 -43 21 -42 20 -42 -20 -43
-21 -42 21 -43 20 -42 -20 -43 -21 -42 21 -43 20 85 43 84 42 -42 22 -43 22
43 21 43 20 85 -42 85 -43 39 20z m-671 -43 l42 -22 -43 -20 -42 -21 -42 21
-43 20 40 21 c49 26 38 26 88 1z m210 -20 l82 -42 -43 -20 -43 -21 -82 40 -82
41 40 21 c22 12 41 21 43 22 1 0 39 -19 85 -41z m-630 -62 l42 21 85 -43 85
-43 -37 -18 c-21 -10 -38 -21 -38 -25 0 -3 14 -12 30 -19 17 -7 30 -16 30 -20
0 -4 -17 -15 -39 -24 -37 -17 -40 -17 -77 2 l-39 20 38 18 c20 10 37 21 37 24
0 4 -17 15 -39 24 -37 17 -40 17 -79 -3 l-41 -21 -44 21 -43 21 -42 -21 -42
-21 -42 21 -42 22 84 42 85 43 42 -21 43 -21 43 21z m-713 -169 c0 -26 -2 -48
-5 -48 -3 0 -24 9 -45 20 -39 20 -40 22 -40 70 l0 50 45 -22 c44 -22 45 -23
45 -70z m1885 45 c19 -9 35 -20 35 -23 0 -4 -17 -15 -39 -24 -37 -17 -40 -17
-77 2 l-38 19 40 21 c21 12 40 21 41 22 1 0 18 -8 38 -17z m-415 -88 c40 18
42 18 83 -2 l42 -20 -40 -20 -39 -20 39 -20 39 -21 -42 -21 -42 -21 -40 20
-39 20 -44 -21 -43 -21 -84 42 -85 43 85 42 85 43 42 -21 c41 -20 43 -20 83
-2z m-1005 -42 c33 -16 35 -20 35 -65 0 -52 -3 -54 -40 -33 -37 21 -40 19 -40
-30 0 -25 -2 -45 -5 -45 -3 0 -41 18 -85 40 l-80 40 0 50 0 50 80 -40 c44 -22
82 -40 85 -40 3 0 5 20 5 45 0 25 2 45 5 45 2 0 20 -8 40 -17z m498 -84 l42
-22 -43 -21 -43 -20 43 -22 42 -21 -42 -22 c-40 -20 -42 -24 -42 -66 0 -25 -2
-45 -5 -45 -2 0 -20 8 -40 17 -33 16 -35 19 -35 68 0 50 -1 51 -42 72 l-43 20
80 41 c44 23 81 41 83 42 1 0 22 -10 45 -21z m-833 -159 c39 -20 40 -22 40
-70 l0 -50 -40 20 c-21 11 -42 20 -45 20 -3 0 -5 -23 -5 -50 l0 -50 -40 20
c-39 20 -40 22 -40 70 0 54 3 56 40 35 37 -21 40 -19 40 30 0 25 2 45 5 45 3
0 24 -9 45 -20z m540 -320 c0 -50 1 -51 45 -72 45 -22 45 -22 45 -75 l0 -53
-45 22 c-45 22 -45 22 -45 75 0 51 -1 53 -40 73 -39 20 -40 22 -40 70 l0 50
40 -20 c39 -20 40 -22 40 -70z m-670 -77 l0 -53 -40 20 c-21 11 -42 20 -45 20
-3 0 -5 -20 -5 -45 0 -25 -2 -45 -5 -45 -2 0 -20 8 -40 17 -33 16 -35 20 -35
65 0 52 3 54 40 33 37 -21 40 -19 40 35 l0 50 45 -22 c45 -22 45 -22 45 -75z
m550 -123 c39 -20 40 -22 40 -70 l0 -50 -40 20 c-21 11 -42 20 -45 20 -3 0 -5
-23 -5 -50 l0 -50 -40 20 c-39 20 -40 22 -40 70 0 54 3 56 40 35 37 -21 40
-19 40 30 0 25 2 45 5 45 3 0 24 -9 45 -20z m505 -147 c34 -16 35 -19 35 -70
l0 -53 -40 20 c-39 20 -40 22 -40 70 0 28 2 50 5 50 2 0 20 -8 40 -17z m-1095
-73 c39 -20 40 -22 40 -70 l0 -50 -40 20 c-21 11 -42 20 -45 20 -3 0 -5 -23
-5 -50 l0 -50 -40 20 c-39 20 -40 22 -40 70 0 54 3 56 40 35 37 -21 40 -19 40
30 0 25 2 45 5 45 3 0 24 -9 45 -20z m425 -107 c34 -16 35 -19 35 -70 l0 -53
-40 20 c-39 20 -40 22 -40 70 0 28 2 50 5 50 2 0 20 -8 40 -17z m-85 -63 c39
-20 40 -22 40 -70 l0 -50 -45 22 c-44 22 -45 23 -45 70 0 26 2 48 5 48 3 0 24
-9 45 -20z m755 -167 c34 -16 35 -19 35 -70 l0 -53 -40 20 c-39 20 -40 22 -40
70 0 28 2 50 5 50 2 0 20 -8 40 -17z m-125 -43 l80 -40 0 -50 c0 -28 -2 -50
-5 -50 -3 0 -41 18 -85 40 l-80 40 0 50 c0 28 2 50 5 50 3 0 41 -18 85 -40z"/>
</g>
</svg>
